<svg width="51" height="50" viewBox="0 0 51 50" fill="none" xmlns="http://www.w3.org/2000/svg">
    <path
        d="M12.9461 22.0692V17.9538C12.9461 17.7103 12.9461 17.6128 13.2641 17.6128C15.9897 17.6128 18.2051 17.4513 19.3051 18.1C20.4076 18.7462 20.4538 19.6385 20.4717 19.9051C20.4897 20.1718 20.482 20.5538 19.9692 21.4846C19.4564 22.4154 17.1615 22.4333 15.5051 22.4333H13.3128C13.0435 22.4333 12.9461 22.3359 12.9461 22.0692ZM20.5 26.3821C20.7539 26.7062 20.9352 27.0812 21.0315 27.4816C21.1278 27.882 21.1368 28.2984 21.058 28.7026C20.9792 29.1068 20.8144 29.4893 20.5748 29.8242C20.3352 30.1591 20.0263 30.4385 19.6692 30.6436C19.1446 30.8643 18.5819 30.9802 18.0128 30.9846H13.2871C13.0435 30.9846 12.9461 30.9846 12.9461 30.6692V25.7974C12.9461 25.5538 12.9461 25.4564 13.2641 25.4564H16.4051C18.3538 25.4564 19.5717 25.2872 20.5 26.3821Z"
        fill="white" />
    <path
        d="M37.6513 24.1256C37.5206 23.8176 37.3224 23.5429 37.0711 23.3218C36.8199 23.1008 36.5222 22.9391 36.2 22.8487C35.556 22.6728 34.882 22.6355 34.2225 22.7394C33.563 22.8432 32.9331 23.0859 32.3744 23.4513C31.8175 24.0139 31.4577 24.7416 31.3487 25.5256C31.3487 25.8 31.3487 25.8513 31.6744 25.8513H37.7513C38.0513 25.8513 38.0513 25.8513 38.0256 25.4744C37.9969 25.0032 37.871 24.5435 37.6513 24.1256ZM37.6513 24.1256C37.5206 23.8176 37.3198 23.5429 37.0686 23.3218C36.8174 23.1008 36.5222 22.9391 36.2 22.8487C35.556 22.6728 34.882 22.6355 34.2225 22.7394C33.563 22.8432 32.9331 23.0859 32.3744 23.4513C31.8175 24.0139 31.4552 24.7416 31.3462 25.5256C31.3462 25.8 31.3462 25.8513 31.6718 25.8513H37.7513C38.0513 25.8513 38.0513 25.8513 38.0256 25.4744C37.9969 25.0032 37.8659 24.5435 37.6462 24.1256M40.5 0H10.5C7.84784 0 5.3043 1.05357 3.42893 2.92893C1.55357 4.8043 0.5 7.34784 0.5 10V40C0.5 42.6522 1.55357 45.1957 3.42893 47.0711C5.3043 48.9464 7.84784 50 10.5 50H40.5C43.1522 50 45.6957 48.9464 47.5711 47.0711C49.4464 45.1957 50.5 42.6522 50.5 40V10C50.5 7.34784 49.4464 4.8043 47.5711 2.92893C45.6957 1.05357 43.1522 0 40.5 0ZM30.7 15.9231C30.7 15.7256 30.7 15.6487 30.9256 15.6487H39.0256V17.7513C39.0256 17.7513 39.0333 17.9 38.9 17.9H31.0513C30.7 17.9 30.7 17.9 30.7 17.5513V15.9231ZM23.2 34.3C20.1231 35.9744 14.9513 35.3 8.82564 35.3V14.5744H18.6C21.1 14.5744 24.0744 15.2 24.8744 17.8487C25.2898 19.0056 25.2645 20.2749 24.8033 21.4143C24.3422 22.5538 23.4775 23.4834 22.3744 24.0256C23.3912 24.4019 24.2789 25.0616 24.9325 25.9267C25.586 26.7917 25.9781 27.8259 26.0623 28.9068C26.1464 29.9877 25.9192 31.0701 25.4074 32.0259C24.8956 32.9817 24.1207 33.7709 23.1744 34.3H23.2ZM41.8256 28.4H31.8256C31.5513 28.4 31.3 28.5487 31.3487 28.9C31.6487 30.3744 32.3231 31.9256 33.8513 32.1513C34.6582 32.3914 35.5223 32.3545 36.3058 32.0464C37.0893 31.7383 37.7471 31.1768 38.1744 30.4513C38.1744 30.4513 38.3 30.3 38.3744 30.3H41.6256C41.6256 30.3 41.8256 30.3 41.7744 30.4744C41.4315 31.4453 40.9241 32.3499 40.2744 33.1487C39.4054 33.9788 38.3568 34.5974 37.2101 34.9566C36.0633 35.3157 34.8492 35.4058 33.662 35.2198C32.4748 35.0338 31.3465 34.5767 30.3645 33.884C29.3826 33.1913 28.5735 32.2817 28 31.2256C27.6473 30.5214 27.4274 29.7583 27.3513 28.9744C26.9053 27.0041 27.2462 24.9375 28.3013 23.2148C29.3563 21.4921 31.0423 20.2494 33 19.7513C38.6744 18.5256 42.2744 22.4256 42.2744 27.9256C42.2828 27.9899 42.2763 28.0553 42.2554 28.1167C42.2346 28.178 42.1999 28.2338 42.154 28.2797C42.1082 28.3255 42.0524 28.3602 41.991 28.3811C41.9296 28.4019 41.8643 28.4084 41.8 28.4H41.8256ZM36.2256 22.8487C35.5822 22.6702 34.9077 22.6335 34.2487 22.741C33.5897 22.8436 33 22.9692 32.4 23.4513C31.8 23.9308 31.4821 24.741 31.3744 25.5256C31.3744 25.8 31.3744 25.8513 31.7 25.8513H37.7513C38.0513 25.8513 38.0513 25.8513 38.0256 25.4744C37.9969 25.0032 37.871 24.5435 37.6513 24.1256C37.5206 23.8176 37.3224 23.5429 37.0711 23.3218C36.8199 23.1008 36.5222 22.9391 36.2 22.8487H36.2256Z"
        fill="white" />
</svg>