<svg width="51" height="50" viewBox="0 0 51 50" fill="none" xmlns="http://www.w3.org/2000/svg">
    <path
        d="M44.9444 0C46.4179 0 47.8309 0.585316 48.8728 1.62718C49.9147 2.66905 50.5 4.08213 50.5 5.55556V44.4444C50.5 45.9179 49.9147 47.3309 48.8728 48.3728C47.8309 49.4147 46.4179 50 44.9444 50H6.05556C4.58213 50 3.16905 49.4147 2.12718 48.3728C1.08532 47.3309 0.5 45.9179 0.5 44.4444V5.55556C0.5 4.08213 1.08532 2.66905 2.12718 1.62718C3.16905 0.585316 4.58213 0 6.05556 0H44.9444ZM43.5556 43.0556V28.3333C43.5556 25.9316 42.6015 23.6283 40.9032 21.9301C39.205 20.2318 36.9017 19.2778 34.5 19.2778C32.1389 19.2778 29.3889 20.7222 28.0556 22.8889V19.8056H20.3056V43.0556H28.0556V29.3611C28.0556 27.2222 29.7778 25.4722 31.9167 25.4722C32.9481 25.4722 33.9372 25.8819 34.6665 26.6112C35.3958 27.3406 35.8056 28.3297 35.8056 29.3611V43.0556H43.5556ZM11.2778 15.4444C12.5155 15.4444 13.7024 14.9528 14.5776 14.0776C15.4528 13.2024 15.9444 12.0155 15.9444 10.7778C15.9444 8.19444 13.8611 6.08333 11.2778 6.08333C10.0327 6.08333 8.83868 6.57792 7.9583 7.4583C7.07792 8.33868 6.58333 9.53273 6.58333 10.7778C6.58333 13.3611 8.69444 15.4444 11.2778 15.4444ZM15.1389 43.0556V19.8056H7.44444V43.0556H15.1389Z"
        fill="white" />
</svg>